<svg height="512" viewBox="0 0 64 64" width="512" xmlns="http://www.w3.org/2000/svg"><g id="Networking"><path d="m47 26.09-13 5.57v9.05a19.023 19.023 0 0 0 7.96 15.46l5.04 3.6 5.04-3.6a19.023 19.023 0 0 0 7.96-15.46v-9.05zm-1.26 19.58a.966.966 0 0 1 -.74.33 1.03 1.03 0 0 1 -.51-.14l-5-3 1.02-1.72 4.3 2.58 8.45-9.39 1.48 1.34z"/><path d="m25 47v-3.48a18.866 18.866 0 0 1 -8 1.48 18.866 18.866 0 0 1 -8-1.48v3.48c0 .51 2.75 2 8 2s8-1.49 8-2zm-9-1h2v2h-2z"/><path d="m9 37.52v3.48c0 .51 2.75 2 8 2s8-1.49 8-2v-3.48a18.866 18.866 0 0 1 -8 1.48 18.866 18.866 0 0 1 -8-1.48zm9 4.48h-2v-2h2z"/><path d="m25 31.52a18.866 18.866 0 0 1 -8 1.48 18.866 18.866 0 0 1 -8-1.48v3.48c0 .51 2.75 2 8 2s8-1.49 8-2zm-7 4.48h-2v-2h2z"/><ellipse cx="17" cy="29" rx="8" ry="2"/><path d="m6 19h24a2 2 0 0 0 0-4h-1.42a1.013 1.013 0 0 1 -.84-.45 1.034 1.034 0 0 1 -.08-.95 3.867 3.867 0 0 0 .34-1.6 3.99 3.99 0 0 0 -7.25-2.31.991.991 0 0 1 -1.06.38 1 1 0 0 1 -.75-.84 5.994 5.994 0 0 0 -11.94.77 5.938 5.938 0 0 0 1.08 3.43 1 1 0 0 1 .07 1.03 1.02 1.02 0 0 1 -.89.54h-1.26a2 2 0 0 0 0 4z"/><path d="m16 20h2v6h-2z"/><path d="m18 50h-2v5a1 1 0 0 0 1 1h18v-2h-17z"/><path d="m28 20v4a1 1 0 0 0 1 1h5v-2h-4v-3z"/><path d="m5 23h-3v2h4a1 1 0 0 0 1-1v-4h-2z"/></g></svg>